<?xml version="1.0" encoding="utf-8"?>
<!-- Generator: Adobe Illustrator 18.0.0, SVG Export Plug-In . SVG Version: 6.00 Build 0)  -->
<!DOCTYPE svg PUBLIC "-//W3C//DTD SVG 1.1//EN" "http://www.w3.org/Graphics/SVG/1.1/DTD/svg11.dtd">
<svg version="1.1" id="图层_1" xmlns="http://www.w3.org/2000/svg" xmlns:xlink="http://www.w3.org/1999/xlink" x="0px" y="0px"
	 viewBox="0 0 2000 1000" enable-background="new 0 0 2000 1000" xml:space="preserve">
<g>
	<circle fill="none" stroke="#B6BFDB" stroke-width="0.5" stroke-miterlimit="10" cx="1113.1" cy="518.8" r="75"/>
	<circle fill="none" stroke="#B6BFDB" stroke-width="0.75" stroke-miterlimit="10" cx="1113.1" cy="518.8" r="120"/>
	<circle fill="none" stroke="#B6BFDB" stroke-miterlimit="10" cx="1113.1" cy="518.8" r="170"/>
	<circle fill="none" stroke="#B6BFDB" stroke-width="0.75" stroke-miterlimit="10" cx="1113.1" cy="518.8" r="220"/>
	<circle fill="none" stroke="#B6BFDB" stroke-width="0.5" stroke-miterlimit="10" cx="1113.1" cy="518.8" r="290"/>
	<path fill="none" stroke="#B6BFDB" stroke-width="0.25" stroke-miterlimit="10" d="M1477.7,518.8c0,201.4-163.2,364.6-364.6,364.6
		c-201.4,0-364.6-163.2-364.6-364.6c0-201.4,163.2-364.6,364.6-364.6C1314.5,154.2,1477.7,317.4,1477.7,518.8z"/>
	<path fill="none" stroke="#B6BFDB" stroke-width="0.25" stroke-miterlimit="10" d="M1626.7,518.8c0,283.7-229.9,513.6-513.6,513.6
		c-283.7,0-513.6-230-513.6-513.6c0-283.7,229.9-513.6,513.6-513.6C1396.8,5.2,1626.7,235.1,1626.7,518.8z"/>
	<path fill="none" stroke="#B6BFDB" stroke-width="0.25" stroke-miterlimit="10" d="M1599.2,518.8c0,268.5-217.6,486.1-486.1,486.1
		c-268.5,0-486.1-217.6-486.1-486.1c0-268.5,217.6-486.1,486.1-486.1C1381.6,32.7,1599.2,250.3,1599.2,518.8z"/>
</g>
<g>
	<line fill="none" stroke="#B6BFDB" stroke-width="0.25" stroke-miterlimit="10" x1="1111.4" y1="-62.2" x2="1111.4" y2="1099.8"/>
	<line fill="none" stroke="#B6BFDB" stroke-width="0.25" stroke-miterlimit="10" x1="961.5" y1="-42.5" x2="1262.2" y2="1079.9"/>
	<line fill="none" stroke="#B6BFDB" stroke-width="0.25" stroke-miterlimit="10" x1="821.8" y1="15.4" x2="1402.8" y2="1021.7"/>
	<line fill="none" stroke="#B6BFDB" stroke-width="0.25" stroke-miterlimit="10" x1="701.8" y1="107.4" x2="1523.5" y2="929.1"/>
	<line fill="none" stroke="#B6BFDB" stroke-width="0.25" stroke-miterlimit="10" x1="609.7" y1="227.4" x2="1616.1" y2="808.4"/>
	<line fill="none" stroke="#B6BFDB" stroke-width="0.25" stroke-miterlimit="10" x1="551.9" y1="367.1" x2="1674.3" y2="667.8"/>
	<line fill="none" stroke="#B6BFDB" stroke-width="0.25" stroke-miterlimit="10" x1="532.1" y1="517" x2="1694.1" y2="517"/>
	<line fill="none" stroke="#B6BFDB" stroke-width="0.25" stroke-miterlimit="10" x1="551.9" y1="666.9" x2="1674.3" y2="366.2"/>
	<line fill="none" stroke="#B6BFDB" stroke-width="0.25" stroke-miterlimit="10" x1="609.7" y1="806.6" x2="1616.1" y2="225.6"/>
	<line fill="none" stroke="#B6BFDB" stroke-width="0.25" stroke-miterlimit="10" x1="701.8" y1="926.6" x2="1523.5" y2="104.9"/>
	<line fill="none" stroke="#B6BFDB" stroke-width="0.25" stroke-miterlimit="10" x1="821.8" y1="1018.6" x2="1402.8" y2="12.3"/>
	<line fill="none" stroke="#B6BFDB" stroke-width="0.25" stroke-miterlimit="10" x1="961.5" y1="1076.5" x2="1262.2" y2="-45.9"/>
</g>
</svg>
